# xmcd
#
# Track frame offsets: 
#        150
#        73921
#        146539
#        218739
#
# Disc length: 3878 seconds
#
# Revision: 0
# Processed by: cddbd v1.5.2PL0 Copyright (c) Steve Scherf et al.
# Submitted via: ExactAudioCopy v0.95b3
#
DISCID=3c0f2404
DTITLE=The Beatles  - Kum Back jan 6-8 - Disc 6  FLAC
DYEAR=1900
DGENRE=
TTITLE0=Nagra Roll 073B  --feeling , julia
TTITLE1=Nagra Roll 074B
TTITLE2=Nagra Roll 075B
TTITLE3=Nagra Roll 076B
EXTD=
EXTT0=
EXTT1=
EXTT2=
EXTT3=
PLAYORDER=
